<svg viewBox="0 0 400 100" xmlns="http://www.w3.org/2000/svg">
  <path d="M10 70 V30 H60 V50 H25 V60 H60 V80 H10 V70 Z" fill="#00A651" /> <!-- S -->
  <path d="M75 80 L110 20 L145 80 H125 L110 50 L95 80 H75 Z" fill="#00A651" /> <!-- A -->
  <path d="M160 80 V20 H180 L210 60 V20 H230 V80 H210 L180 40 V80 H160 Z" fill="#00A651" /> <!-- N -->
  <path d="M245 80 V20 H265 V45 L290 20 H315 L285 50 L315 80 H290 L265 55 V80 H245 Z" fill="#00A651" /> <!-- K -->
  <path d="M330 30 C330 20 340 20 340 20 H380 C390 20 390 30 390 30 V70 C390 80 380 80 380 80 H340 C330 80 330 70 330 70 V30 Z M350 35 V65 H370 V35 H350 Z" fill="#00A651" /> <!-- O -->
</svg>
