<?xml version="1.0" encoding="UTF-8"?><svg id="uuid-21c10b39-8276-40c5-92ac-fbfbb7485e83" xmlns="http://www.w3.org/2000/svg" width="175.1927cm" height="54.8272cm" viewBox="0 0 4966.0925 1554.1577"><defs><style>.uuid-1d8ebf22-9e13-4ba9-9020-ffa4f990393d{fill:#0069b4;}.uuid-bbe28534-6415-4414-bebf-9b643d1415a0{fill:#fff;}.uuid-940f1491-a9f8-43ba-b332-a0c4e7388ec8{fill:#ffffff;}</style></defs><g><polygon class="uuid-940f1491-a9f8-43ba-b332-a0c4e7388ec8" points="1003.3176 260.8001 669.8529 260.8001 500.9213 1013.5584 175.9513 1013.5584 344.8699 260.8001 0 260.8001 57.9218 1.2721 1062.8459 1.2721 1003.3176 260.8001"/><path class="uuid-940f1491-a9f8-43ba-b332-a0c4e7388ec8" d="M1398.1147,444.1638h151.5604c137.0472,0,188.6472-33.4515,188.6472-120.1631,0-60.8586-43.54-88.2259-141.8806-88.2259h-151.5736l-46.7534,208.389ZM1664.149,.0052c298.2873,0,403.0811,69.9592,403.0811,266.1794,0,150.599-99.9603,264.6907-246.6872,281.4165,83.8402,33.4781,114.4735,86.7115,114.4735,203.8321l-3.2266,144.5148c0,65.4023,3.2266,88.2255,14.5132,118.6486h-322.4674c-4.8335-19.7815-8.0472-42.5919-8.0472-65.4156l4.8335-136.9021c0-120.1635-33.8599-153.6415-156.4067-153.6415h-114.4607l-80.6136,355.9591h-325.6944L1172.3939,.0052h491.7552Z"/><polygon class="uuid-940f1491-a9f8-43ba-b332-a0c4e7388ec8" points="2368.6102 1014.5909 2042.9158 1014.5909 2271.8633 0 2597.5573 0 2368.6102 1014.5909"/><path class="uuid-940f1491-a9f8-43ba-b332-a0c4e7388ec8" d="M3780.0722,1014.5909h-306.3478l99.9736-442.657c27.4067-118.6486,53.2069-214.4736,90.2934-336.1643-75.7802,173.4094-128.9867,287.5011-172.5268,369.6424l-209.6008,409.179h-246.6876l-25.7998-409.179c-8.06-111.0363-11.2734-229.6978-11.2734-363.5578-12.9068,106.4794-37.0869,249.4794-58.0537,342.2622l-96.7337,430.4745h-306.3474L2765.9157,0h457.9077l9.6669,313.354c1.6069,33.4652,1.6069,66.9167,1.6069,121.6911,0,89.7404-1.6069,152.1134-6.4403,237.284,41.9203-141.459,103.1869-289.0026,206.3742-480.6659L3536.6111,0h472.4077l-228.9466,1014.5909Z"/><path class="uuid-940f1491-a9f8-43ba-b332-a0c4e7388ec8" d="M4556.9865,326.7718l-166.4892,324.2605h206.3856l-39.8964-324.2605Zm409.106,687.8191h-327.3017l-19.3467-144.5011h-349.8613l-83.8535,144.5011h-340.2072L4471.1103,0h325.6948l169.2873,1014.5909Z"/></g><polygon class="uuid-1d8ebf22-9e13-4ba9-9020-ffa4f990393d" points="4938.4267 1160.0678 4867.2353 1475.0777 78.1759 1474.1889 149.5925 1160.0678 4938.4267 1160.0678"/><g><path class="uuid-bbe28534-6415-4414-bebf-9b643d1415a0" d="M1992.9004,1252.3906l7.9487-37.4727h169.1934l-7.9487,37.4727h-60.7505l-34.6338,165.2183h-44.853l34.6333-165.2183h-63.5894Z"/><path class="uuid-bbe28534-6415-4414-bebf-9b643d1415a0" d="M2289.27,1214.918c9.0845-.1865,17.3613,.6172,24.8398,2.4131,7.4741,1.8008,13.8613,4.8262,19.1621,9.084,5.2959,4.2588,9.3682,9.7939,12.2065,16.6074,2.8389,6.8135,4.2583,15.1431,4.2583,24.981,0,6.8145-1.1353,13.3438-3.4062,19.5879-2.2715,6.2461-5.4917,11.7812-9.6523,16.6074-4.165,4.8262-9.084,8.8496-14.7617,12.0645-5.6777,3.2207-11.9229,5.3008-18.7363,6.2461v.5684c8.3262,2.6523,13.9106,7.2383,16.749,13.7676,2.8389,6.5293,4.2583,13.8652,4.2583,22,0,4.543-.2393,9.9863-.7095,16.3242-.4746,6.3418-.71,12.6328-.71,18.877,0,4.543,.1865,8.8496,.5679,12.918,.377,4.0723,1.1357,7.6191,2.271,10.6445h-43.4336c-.5679-2.457-1.0425-4.7773-1.4194-6.9551-.3813-2.1738-.5679-4.4004-.5679-6.6699,0-6.8145,.377-13.6719,1.1357-20.582,.7539-6.9062,1.1353-13.7676,1.1353-20.582,0-4.918-.7095-8.9414-2.1289-12.0645s-3.4067-5.6289-5.9619-7.5234c-2.5547-1.8887-5.6328-3.166-9.2261-3.832-3.5972-.6602-7.5713-.9941-11.9229-.9941h-42.0146l-16.7485,79.2031h-44.2856l42.2983-202.6909h96.8032Zm-30.0913,91.6929c6.0547,0,11.8257-.6113,17.3169-1.8438,5.4868-1.2285,10.3618-3.123,14.6196-5.6777,4.2583-2.5547,7.665-5.8652,10.2197-9.9355,2.5552-4.0684,3.8325-8.9434,3.8325-14.6211,0-5.4863-.9004-9.8867-2.6968-13.1992-1.8008-3.3105-4.2139-5.8208-7.2388-7.5239-3.0298-1.7031-6.5293-2.8389-10.5039-3.4062-3.9741-.5674-8.1392-.8516-12.4907-.8516h-42.2983l-11.9229,57.0591h41.1626Z"/><path class="uuid-bbe28534-6415-4414-bebf-9b643d1415a0" d="M2362.7949,1214.918h45.7046l30.3755,86.3003,63.0215-86.3003h52.5181l-98.7905,126.0425-15.6133,76.6484h-44.8535l16.1812-78.6348-48.5435-124.0562Z"/><path class="uuid-bbe28534-6415-4414-bebf-9b643d1415a0" d="M2540.5053,1373.8921l-9.3682,43.7168h-44.5693l9.0845-43.7168h44.853Z"/><path class="uuid-bbe28534-6415-4414-bebf-9b643d1415a0" d="M2663.1421,1252.3906l7.9487-37.4727h169.1934l-7.9487,37.4727h-60.7505l-34.6338,165.2183h-44.853l34.6333-165.2183h-63.5894Z"/><path class="uuid-bbe28534-6415-4414-bebf-9b643d1415a0" d="M2959.5117,1214.918c9.0845-.1865,17.3613,.6172,24.8398,2.4131,7.4741,1.8008,13.8613,4.8262,19.1621,9.084,5.2959,4.2588,9.3682,9.7939,12.2065,16.6074,2.8389,6.8135,4.2583,15.1431,4.2583,24.981,0,6.8145-1.1353,13.3438-3.4062,19.5879-2.2715,6.2461-5.4917,11.7812-9.6523,16.6074-4.165,4.8262-9.084,8.8496-14.7617,12.0645-5.6777,3.2207-11.9229,5.3008-18.7363,6.2461v.5684c8.3262,2.6523,13.9106,7.2383,16.749,13.7676,2.8389,6.5293,4.2583,13.8652,4.2583,22,0,4.543-.2393,9.9863-.7095,16.3242-.4746,6.3418-.71,12.6328-.71,18.877,0,4.543,.1865,8.8496,.5679,12.918,.377,4.0723,1.1357,7.6191,2.271,10.6445h-43.4336c-.5679-2.457-1.0425-4.7773-1.4194-6.9551-.3813-2.1738-.5679-4.4004-.5679-6.6699,0-6.8145,.377-13.6719,1.1357-20.582,.7539-6.9062,1.1353-13.7676,1.1353-20.582,0-4.918-.7095-8.9414-2.1289-12.0645s-3.4067-5.6289-5.9619-7.5234c-2.5547-1.8887-5.6328-3.166-9.2261-3.832-3.5972-.6602-7.5713-.9941-11.9229-.9941h-42.0146l-16.7485,79.2031h-44.2856l42.2983-202.6909h96.8032Zm-30.0913,91.6929c6.0547,0,11.8257-.6113,17.3169-1.8438,5.4868-1.2285,10.3618-3.123,14.6196-5.6777,4.2583-2.5547,7.665-5.8652,10.2197-9.9355,2.5552-4.0684,3.8325-8.9434,3.8325-14.6211,0-5.4863-.9004-9.8867-2.6968-13.1992-1.8008-3.3105-4.2139-5.8208-7.2388-7.5239-3.0298-1.7031-6.5293-2.8389-10.5039-3.4062-3.9741-.5674-8.1392-.8516-12.4907-.8516h-42.2983l-11.9229,57.0591h41.1626Z"/><path class="uuid-bbe28534-6415-4414-bebf-9b643d1415a0" d="M3202.935,1371.3374c-4.6387,11.168-10.7422,20.4883-18.3086,27.9609-7.5723,7.4785-16.8477,13.1562-27.8223,17.0332-10.9766,3.877-24.3203,5.8203-40.0254,5.8203-9.8438,0-19.5449-1.043-29.0996-3.123-9.5586-2.0801-18.0742-5.4375-25.5483-10.0781-7.4785-4.6348-13.5332-10.7871-18.1685-18.4512-4.6396-7.666-6.9551-17.0781-6.9551-28.2461,0-5.1113,.4702-10.1719,1.4194-15.1895,.9448-5.0117,1.8896-9.9785,2.8389-14.9023l24.6973-117.2437h44.5698l-24.6973,117.2437c-.3828,1.7031-.8086,3.6465-1.2773,5.8184-.4746,2.1777-.9492,4.498-1.4199,6.9551-.4746,2.4629-.8516,4.7832-1.1367,6.9551-.2832,2.1777-.4258,4.1172-.4258,5.8203,0,2.4609,.5195,5.3008,1.5625,8.5156,1.0371,3.2207,2.9805,6.2012,5.8184,8.9434,2.8398,2.7461,6.7168,5.0645,11.6406,6.9551,4.918,1.8945,11.2578,2.8379,19.0195,2.8379,9.084,0,16.4648-1.1797,22.1426-3.5488,5.6777-2.3633,10.2637-5.6758,13.7676-9.9355,3.5-4.2578,6.2461-9.5098,8.2324-15.7539,1.9883-6.2461,3.834-13.1523,5.5371-20.7246l25.2656-120.0815h44.5684l-24.6973,117.8101c-3.0293,14.5762-6.8613,27.4434-11.498,38.6094Z"/><path class="uuid-bbe28534-6415-4414-bebf-9b643d1415a0" d="M3282.8471,1368.3569c2.0801,4.8242,5.1104,8.6582,9.084,11.4961,3.9746,2.8398,8.7031,4.875,14.1943,6.1035,5.4873,1.2324,11.4482,1.8457,17.8848,1.8457,4.542,0,9.084-.5684,13.626-1.7031,4.542-1.1367,8.6582-2.8398,12.3486-5.1113,3.6904-2.2695,6.7158-5.2012,9.085-8.7988,2.3643-3.5938,3.5479-7.9492,3.5479-13.0586,0-4.9199-1.5166-8.9434-4.542-12.0664-3.0293-3.1211-6.9551-5.8184-11.7812-8.0898-4.8252-2.2715-10.3174-4.2578-16.4648-5.9609-6.1523-1.7031-12.3486-3.5-18.5938-5.3945-6.4365-1.8887-12.6816-4.1602-18.7363-6.8125-6.0596-2.6484-11.4971-6.0547-16.3232-10.2207-4.8262-4.1602-8.707-9.2695-11.6396-15.3281-2.9355-6.0547-4.3994-13.4355-4.3994-22.1426,0-11.3555,2.3643-21.0083,7.0967-28.9565,4.7285-7.9492,10.8809-14.4297,18.4521-19.4463,7.5674-5.0117,16.1328-8.7021,25.6914-11.0713,9.5547-2.3643,19.2549-3.5488,29.0977-3.5488,10.4062,0,20.2002,1.1846,29.3818,3.5488,9.1777,2.3691,17.2188,6.2012,24.1299,11.4971,6.9062,5.3008,12.3936,12.0654,16.4648,20.2979,4.0674,8.2324,6.1035,18.2163,6.1035,29.9487h-42.2979c.1865-5.6777-.6172-10.4551-2.4131-14.3359-1.8008-3.877-4.3555-7.0474-7.665-9.5093-3.3135-2.458-7.2393-4.21-11.7812-5.252-4.542-1.0381-9.3682-1.5615-14.4775-1.5615-4.165,0-8.375,.4258-12.6328,1.2773s-8.0908,2.2715-11.4971,4.2588c-3.4062,1.9863-6.1523,4.5908-8.2324,7.8062-2.085,3.2207-3.123,7.1953-3.123,11.9238,0,4.9238,1.8457,9.0391,5.5361,12.3477,3.6904,3.3145,8.1348,6.0605,13.3418,8.2324,5.2031,2.1777,10.5479,3.8828,16.04,5.1113,5.4863,1.2324,9.9355,2.2266,13.3418,2.9805,7.9492,2.084,15.2324,4.498,21.8594,7.2383,6.6221,2.7461,12.3486,6.2949,17.1748,10.6465,4.8252,4.3555,8.5605,9.6504,11.2129,15.8965,2.6484,6.2461,3.9746,13.9102,3.9746,22.9941,0,12.1133-2.5107,22.4277-7.5234,30.9434-5.0166,8.5156-11.4521,15.4277-19.3037,20.7227-7.8555,5.3008-16.7041,9.1328-26.543,11.498-9.8428,2.3633-19.5879,3.5488-29.2393,3.5488-28.3887,0-49.5371-5.7715-63.4473-17.3164-13.9111-11.543-20.8662-29.7109-20.8662-54.5059h42.2988c-.3818,7.1953,.4697,13.2012,2.5547,18.0273Z"/><path class="uuid-bbe28534-6415-4414-bebf-9b643d1415a0" d="M3435.8589,1252.3906l7.9482-37.4727h169.1934l-7.9492,37.4727h-60.75l-34.6338,165.2183h-44.8535l34.6338-165.2183h-63.5889Z"/><path class="uuid-bbe28534-6415-4414-bebf-9b643d1415a0" d="M3613.0005,1373.8921l-9.3682,43.7168h-44.5693l9.084-43.7168h44.8535Z"/><path class="uuid-bbe28534-6415-4414-bebf-9b643d1415a0" d="M3735.6372,1252.3906l7.9482-37.4727h169.1934l-7.9492,37.4727h-60.75l-34.6338,165.2183h-44.8535l34.6338-165.2183h-63.5889Z"/><path class="uuid-bbe28534-6415-4414-bebf-9b643d1415a0" d="M4032.0063,1214.918c9.084-.1865,17.3613,.6172,24.8398,2.4131,7.4736,1.8008,13.8613,4.8262,19.1621,9.084,5.2959,4.2588,9.3682,9.7939,12.207,16.6074s4.2578,15.1431,4.2578,24.981c0,6.8145-1.1357,13.3438-3.4062,19.5879-2.2715,6.2461-5.4912,11.7812-9.6523,16.6074-4.165,4.8262-9.084,8.8496-14.7617,12.0645-5.6777,3.2207-11.9229,5.3008-18.7363,6.2461v.5684c8.3262,2.6523,13.9102,7.2383,16.749,13.7676s4.2588,13.8652,4.2588,22c0,4.543-.2402,9.9863-.71,16.3242-.4746,6.3418-.71,12.6328-.71,18.877,0,4.543,.1865,8.8496,.5684,12.918,.377,4.0723,1.1348,7.6191,2.2705,10.6445h-43.4336c-.5684-2.457-1.043-4.7773-1.4199-6.9551-.3809-2.1738-.5674-4.4004-.5674-6.6699,0-6.8145,.377-13.6719,1.1357-20.582,.7539-6.9062,1.1357-13.7676,1.1357-20.582,0-4.918-.71-8.9414-2.1299-12.0645-1.4189-3.123-3.4062-5.6289-5.9609-7.5234-2.5557-1.8887-5.6338-3.166-9.2266-3.832-3.5967-.6602-7.5713-.9941-11.9229-.9941h-42.0146l-16.749,79.2031h-44.2852l42.2979-202.6909h96.8037Zm-30.0908,91.6929c6.0547,0,11.8252-.6113,17.3164-1.8438,5.4873-1.2285,10.3613-3.123,14.6201-5.6777,4.2578-2.5547,7.6641-5.8652,10.2197-9.9355,2.5547-4.0684,3.832-8.9434,3.832-14.6211,0-5.4863-.9004-9.8867-2.6963-13.1992-1.8018-3.3105-4.2148-5.8208-7.2393-7.5239-3.0293-1.7031-6.5293-2.8389-10.5039-3.4062s-8.1396-.8516-12.4902-.8516h-42.2988l-11.9229,57.0591h41.1631Z"/><path class="uuid-bbe28534-6415-4414-bebf-9b643d1415a0" d="M4185.2983,1214.918l-42.8662,202.6909h-44.5693l42.582-202.6909h44.8535Z"/><path class="uuid-bbe28534-6415-4414-bebf-9b643d1415a0" d="M4286.0737,1214.918l15.6133,146.7671h.5674l78.0674-146.7671h62.1699l-42.8652,202.6909h-41.7314l36.9053-161.2437h-.5684l-85.7314,161.2437h-34.0664l-19.5879-161.2437h-.5674l-30.375,161.2437h-42.0146l42.582-202.6909h61.6025Z"/><path class="uuid-bbe28534-6415-4414-bebf-9b643d1415a0" d="M4583.8637,1214.918l33.7822,202.6909h-44.2852l-6.5293-45.1367h-75.7969l-25.5488,45.1367h-46.8408l119.5146-202.6909h45.7041Zm-21.0068,124.3394l-9.9355-80.6211h-.5684l-43.7178,80.6211h54.2217Z"/><path class="uuid-bbe28534-6415-4414-bebf-9b643d1415a0" d="M4685.2094,1373.8921l-9.3682,43.7168h-44.5693l9.084-43.7168h44.8535Z"/></g></svg>